<?xml version="1.0" encoding="UTF-8"?>
<!DOCTYPE svg PUBLIC "-//W3C//DTD SVG 1.1//EN" "http://www.w3.org/Graphics/SVG/1.1/DTD/svg11.dtd">
<!-- Creator: CorelDRAW X6 -->
<svg xmlns="http://www.w3.org/2000/svg" xml:space="preserve" width="210mm" height="297mm" version="1.1" style="shape-rendering:geometricPrecision; text-rendering:geometricPrecision; image-rendering:optimizeQuality; fill-rule:evenodd; clip-rule:evenodd"
viewBox="0 0 21000 29700"
 xmlns:xlink="http://www.w3.org/1999/xlink">
 <defs>
  <style type="text/css">
   <![CDATA[
    .fil1 {fill:#FEFEFE}
    .fil0 {fill:#EC3540}
   ]]>
  </style>
 </defs>
 <g id="Camada_x0020_1">
  <metadata id="CorelCorpID_0Corel-Layer"/>
  <path class="fil0" d="M9012 5817c2721,-122 5482,-204 7840,-688 -116,573 -807,988 -1958,1279 -2149,-705 -3984,-563 -5883,-591z"/>
  <path class="fil1" d="M7837 4028c1123,-531 2328,-918 3757,-908 926,59 2122,691 3448,1596 -1814,188 -3878,-55 -5953,-318 -2146,-260 -3969,-190 -5080,609 1034,-538 2738,-611 5159,-185 2901,552 5590,674 7902,26 -1122,-167 -2206,-761 -3281,-1446 -2153,-1166 -4083,-516 -5953,626z"/>
 </g>
</svg>
